<svg width="59" height="59" viewBox="0 0 59 59" fill="none" xmlns="http://www.w3.org/2000/svg">
<path d="M13.5208 47.9375C13.5208 47.9375 22.125 44.25 24.5833 41.7917C27.0417 39.3333 19.6667 39.3333 19.6667 27.0417C19.6667 14.75 29.5 14.75 29.5 14.75C29.5 14.75 39.3333 14.75 39.3333 27.0417C39.3333 39.3333 31.9583 39.3333 34.4167 41.7917C36.875 44.25 45.4792 47.9375 45.4792 47.9375" stroke="#071488" stroke-linecap="round"/>
<path fill-rule="evenodd" clip-rule="evenodd" d="M29.5 54.0833C43.077 54.0833 54.0833 43.077 54.0833 29.5C54.0833 15.923 43.077 4.91666 29.5 4.91666C15.923 4.91666 4.91666 15.923 4.91666 29.5C4.91666 43.077 15.923 54.0833 29.5 54.0833Z" stroke="#071488"/>
</svg>
