<svg width="45" height="45" viewBox="0 0 45 45" fill="none" xmlns="http://www.w3.org/2000/svg">
<g id="user">
<path id="Path 4" d="M10.3125 36.5625C10.3125 36.5625 16.875 33.75 18.75 31.875C20.625 30 15 30 15 20.625C15 11.25 22.5 11.25 22.5 11.25C22.5 11.25 30 11.25 30 20.625C30 30 24.375 30 26.25 31.875C28.125 33.75 34.6875 36.5625 34.6875 36.5625" stroke="#071488" stroke-linecap="round"/>
<path id="Oval" fill-rule="evenodd" clip-rule="evenodd" d="M22.5 41.25C32.8553 41.25 41.25 32.8553 41.25 22.5C41.25 12.1447 32.8553 3.75 22.5 3.75C12.1447 3.75 3.75 12.1447 3.75 22.5C3.75 32.8553 12.1447 41.25 22.5 41.25Z" stroke="#071488"/>
</g>
</svg>
