<svg width="171" height="51" viewBox="0 0 171 51" fill="none" xmlns="http://www.w3.org/2000/svg">
<path d="M16.6463 7.75C16.7069 6.89394 16.4796 6.23106 15.9645 5.76136C15.4569 5.29167 14.6539 5.05682 13.5554 5.05682C12.8281 5.05682 12.2069 5.15151 11.6918 5.34091C11.1766 5.52273 10.7713 5.7803 10.4759 6.11364C10.1804 6.43939 9.99479 6.81818 9.91903 7.25C9.85085 7.59091 9.86979 7.89394 9.97585 8.15909C10.0819 8.42424 10.2675 8.65909 10.5327 8.86364C10.8054 9.06818 11.1425 9.24621 11.544 9.39773C11.9531 9.54924 12.4115 9.68182 12.919 9.79545L14.8281 10.25C15.9342 10.5 16.8925 10.8333 17.7031 11.25C18.5213 11.6591 19.1842 12.1553 19.6918 12.7386C20.1993 13.3144 20.5478 13.9773 20.7372 14.7273C20.9266 15.4773 20.9418 16.3182 20.7827 17.25C20.5402 18.7197 19.9607 19.9811 19.044 21.0341C18.1349 22.0871 16.9456 22.8939 15.4759 23.4545C14.0137 24.0152 12.313 24.2955 10.3736 24.2955C8.43419 24.2955 6.78646 24.0038 5.4304 23.4205C4.08191 22.8295 3.10464 21.9394 2.49858 20.75C1.89252 19.5606 1.72964 18.0606 2.00994 16.25H7.38494C7.30161 17 7.39631 17.625 7.66903 18.125C7.94934 18.625 8.38116 19.0038 8.96449 19.2614C9.54782 19.5189 10.2524 19.6477 11.0781 19.6477C11.8357 19.6477 12.4986 19.5455 13.0668 19.3409C13.6425 19.1364 14.1009 18.8523 14.4418 18.4886C14.7902 18.125 15.0024 17.7083 15.0781 17.2386C15.1539 16.8068 15.0819 16.4318 14.8622 16.1136C14.6501 15.7955 14.2865 15.5189 13.7713 15.2841C13.2637 15.0492 12.5971 14.8371 11.7713 14.6477L9.44176 14.0795C7.51752 13.6098 6.05919 12.8598 5.06676 11.8295C4.08191 10.7992 3.73343 9.40151 4.02131 7.63636C4.26373 6.18939 4.86222 4.92424 5.81676 3.84091C6.77888 2.75757 7.99479 1.91667 9.46449 1.31818C10.9418 0.712121 12.5668 0.40909 14.3395 0.40909C16.1425 0.40909 17.6577 0.715908 18.8849 1.32954C20.1198 1.93561 21.0099 2.79167 21.5554 3.89773C22.1084 4.99621 22.2675 6.2803 22.0327 7.75H16.6463ZM22.5099 24L26.3736 0.727272H31.9986L30.3736 10.5682H30.6804L39.9986 0.727272H46.6236L36.6804 11.1136L42.9077 24H36.1804L31.9531 14.8523L29.1804 17.7273L28.1349 24H22.5099ZM47.6832 0.727272H53.9673L57.2628 10.4659H57.5014L64.0128 0.727272H70.2969L59.2173 16.2273L57.9219 24H52.331L53.6378 16.2273L47.6832 0.727272ZM90.8281 9.15909H85.2145C85.2448 8.56818 85.188 8.04167 85.044 7.57954C84.9001 7.10985 84.6728 6.70833 84.3622 6.375C84.0516 6.03409 83.6652 5.77651 83.2031 5.60227C82.741 5.42803 82.2031 5.34091 81.5895 5.34091C80.4152 5.34091 79.3509 5.63257 78.3963 6.21591C77.4418 6.79924 76.6425 7.64015 75.9986 8.73864C75.3546 9.83712 74.9039 11.1553 74.6463 12.6932C74.4115 14.178 74.4152 15.4167 74.6577 16.4091C74.9077 17.4015 75.3698 18.1477 76.044 18.6477C76.7183 19.1402 77.5743 19.3864 78.6122 19.3864C79.2865 19.3864 79.9115 19.3068 80.4872 19.1477C81.0705 18.9811 81.5971 18.7424 82.0668 18.4318C82.5365 18.1212 82.9418 17.7462 83.2827 17.3068C83.6312 16.8598 83.9001 16.3636 84.0895 15.8182H89.7486C89.4683 16.8409 89.0062 17.8598 88.3622 18.875C87.7259 19.8826 86.9228 20.7955 85.9531 21.6136C84.9834 22.4318 83.8584 23.0871 82.5781 23.5795C81.2978 24.072 79.8736 24.3182 78.3054 24.3182C76.1615 24.3182 74.313 23.8371 72.7599 22.875C71.2145 21.9129 70.0971 20.5189 69.4077 18.6932C68.7259 16.8598 68.5971 14.6402 69.0213 12.0341C69.438 9.51136 70.2599 7.38636 71.4872 5.65909C72.7221 3.93182 74.2221 2.625 75.9872 1.73864C77.7599 0.852272 79.6501 0.40909 81.6577 0.40909C83.1122 0.40909 84.419 0.60606 85.5781 1C86.7448 1.38636 87.7334 1.95454 88.544 2.70454C89.3546 3.44697 89.9569 4.35985 90.3509 5.44318C90.7524 6.52652 90.9115 7.76515 90.8281 9.15909ZM115.445 12.7273C115.02 15.2348 114.187 17.3523 112.945 19.0795C111.71 20.7992 110.206 22.1023 108.433 22.9886C106.668 23.875 104.77 24.3182 102.74 24.3182C100.596 24.3182 98.7401 23.8409 97.1719 22.8864C95.6037 21.9318 94.4635 20.5417 93.7514 18.7159C93.0469 16.8902 92.9105 14.6742 93.3423 12.0682C93.7514 9.56061 94.5734 7.43939 95.8082 5.70454C97.0507 3.9697 98.562 2.6553 100.342 1.76136C102.13 0.859847 104.047 0.40909 106.092 0.40909C108.221 0.40909 110.066 0.890151 111.626 1.85227C113.195 2.81439 114.331 4.21212 115.036 6.04545C115.74 7.87879 115.876 10.1061 115.445 12.7273ZM109.82 12.0682C110.054 10.6061 110.054 9.375 109.82 8.375C109.592 7.375 109.145 6.62121 108.479 6.11364C107.812 5.59848 106.945 5.34091 105.876 5.34091C104.695 5.34091 103.626 5.63257 102.672 6.21591C101.725 6.79167 100.933 7.63257 100.297 8.73864C99.6605 9.83712 99.2173 11.1667 98.9673 12.7273C98.7098 14.2045 98.7022 15.4356 98.9446 16.4205C99.1946 17.4053 99.6605 18.1477 100.342 18.6477C101.024 19.1402 101.892 19.3864 102.945 19.3864C104.119 19.3864 105.176 19.1023 106.115 18.5341C107.054 17.9659 107.839 17.1364 108.467 16.0455C109.104 14.9545 109.554 13.6288 109.82 12.0682ZM120.717 0.727272H127.683L131.206 15.1364H131.479L139.774 0.727272H146.74L142.876 24H137.399L139.774 9.70455H139.581L131.649 23.8523H128.161L124.933 9.625H124.74L122.331 24H116.854L120.717 0.727272ZM146.385 24L150.249 0.727272H159.862C161.605 0.727272 163.055 1.06439 164.214 1.73864C165.374 2.41288 166.196 3.35606 166.68 4.56818C167.165 5.7803 167.275 7.18561 167.01 8.78409C166.752 10.3977 166.173 11.803 165.271 13C164.377 14.197 163.226 15.125 161.817 15.7841C160.408 16.4432 158.805 16.7727 157.01 16.7727H151.089L151.828 12.3409H156.714C157.571 12.3409 158.309 12.1932 158.93 11.8977C159.559 11.6023 160.063 11.1894 160.442 10.6591C160.821 10.1288 161.071 9.50379 161.192 8.78409C161.305 8.06439 161.26 7.44318 161.055 6.92045C160.851 6.39015 160.483 5.98106 159.953 5.69318C159.43 5.4053 158.749 5.26136 157.908 5.26136H155.135L152.01 24H146.385Z" fill="#071488"/>
<path d="M0.40696 35.9716L0.986506 32.5455H15.7393L15.1598 35.9716H9.86719L7.54901 50H3.38991L5.7081 35.9716H0.40696ZM14.902 50L17.7997 32.5455H29.9702L29.3906 35.9716H21.4389L20.8594 39.5511H28.1889L27.6094 42.9858H20.2798L19.7003 46.5739H27.652L27.0724 50H14.902ZM47.3906 38.8693H43.1804C43.2031 38.4261 43.1605 38.0312 43.0526 37.6847C42.9446 37.3324 42.7741 37.0312 42.5412 36.7812C42.3082 36.5256 42.0185 36.3324 41.6719 36.2017C41.3253 36.071 40.9219 36.0057 40.4616 36.0057C39.581 36.0057 38.7827 36.2244 38.0668 36.6619C37.3509 37.0994 36.7514 37.7301 36.2685 38.554C35.7855 39.3778 35.4474 40.3665 35.2543 41.5199C35.0781 42.6335 35.081 43.5625 35.2628 44.3068C35.4503 45.0511 35.7969 45.6108 36.3026 45.9858C36.8082 46.3551 37.4503 46.5398 38.2287 46.5398C38.7344 46.5398 39.2031 46.4801 39.6349 46.3608C40.0724 46.2358 40.4673 46.0568 40.8196 45.8239C41.1719 45.5909 41.4759 45.3097 41.7315 44.9801C41.9929 44.6449 42.1946 44.2727 42.3366 43.8636H46.581C46.3707 44.6307 46.0241 45.3949 45.5412 46.1562C45.0639 46.9119 44.4616 47.5966 43.7344 48.2102C43.0071 48.8239 42.1634 49.3153 41.2031 49.6847C40.2429 50.054 39.1747 50.2386 37.9986 50.2386C36.3906 50.2386 35.0043 49.8778 33.8395 49.1562C32.6804 48.4347 31.8423 47.3892 31.3253 46.0199C30.8139 44.6449 30.7173 42.9801 31.0355 41.0256C31.348 39.1335 31.9645 37.5398 32.8849 36.2443C33.8111 34.9489 34.9361 33.9688 36.2599 33.304C37.5895 32.6392 39.0071 32.3068 40.5128 32.3068C41.6037 32.3068 42.5838 32.4545 43.4531 32.75C44.3281 33.0398 45.0696 33.4659 45.6776 34.0284C46.2855 34.5852 46.7372 35.2699 47.0327 36.0824C47.3338 36.8949 47.4531 37.8239 47.3906 38.8693ZM47.9723 50L50.87 32.5455H55.0888L53.9297 39.5511H60.8075L61.9666 32.5455H66.1768L63.2791 50H59.0689L60.228 42.9858H53.3501L52.1911 50H47.9723ZM83.6783 32.5455L80.7805 50H77.201L71.9425 39.9261H71.8232L70.1442 50H65.9254L68.8232 32.5455H72.4538L77.6697 42.6023H77.8146L79.468 32.5455H83.6783ZM101.314 41.5455C100.996 43.4261 100.371 45.0142 99.4389 46.3097C98.5128 47.5994 97.3849 48.5767 96.0554 49.2415C94.7315 49.9062 93.3082 50.2386 91.7855 50.2386C90.1776 50.2386 88.7855 49.8807 87.6094 49.1648C86.4332 48.4489 85.5781 47.4062 85.044 46.0369C84.5156 44.6676 84.4134 43.0057 84.7372 41.0511C85.044 39.1705 85.6605 37.5795 86.5866 36.2784C87.5185 34.9773 88.652 33.9915 89.9872 33.321C91.3281 32.6449 92.7656 32.3068 94.2997 32.3068C95.8963 32.3068 97.2798 32.6676 98.4503 33.3892C99.6264 34.1108 100.479 35.1591 101.007 36.5341C101.536 37.9091 101.638 39.5795 101.314 41.5455ZM97.0952 41.0511C97.2713 39.9545 97.2713 39.0312 97.0952 38.2812C96.9247 37.5312 96.5895 36.9659 96.0895 36.5852C95.5895 36.1989 94.9389 36.0057 94.1378 36.0057C93.2514 36.0057 92.4503 36.2244 91.7344 36.6619C91.0241 37.0937 90.4304 37.7244 89.9531 38.554C89.4759 39.3778 89.1435 40.375 88.956 41.5455C88.7628 42.6534 88.7571 43.5767 88.9389 44.3153C89.1264 45.054 89.4759 45.6108 89.9872 45.9858C90.4986 46.3551 91.1491 46.5398 91.9389 46.5398C92.8196 46.5398 93.6122 46.3267 94.3168 45.9006C95.0213 45.4744 95.6094 44.8523 96.081 44.0341C96.5582 43.2159 96.8963 42.2216 97.0952 41.0511ZM102.371 50L105.268 32.5455H109.487L107.169 46.5739H114.43L113.851 50H102.371ZM133.236 41.5455C132.918 43.4261 132.293 45.0142 131.361 46.3097C130.435 47.5994 129.307 48.5767 127.977 49.2415C126.653 49.9062 125.23 50.2386 123.707 50.2386C122.099 50.2386 120.707 49.8807 119.531 49.1648C118.355 48.4489 117.5 47.4062 116.966 46.0369C116.438 44.6676 116.335 43.0057 116.659 41.0511C116.966 39.1705 117.582 37.5795 118.509 36.2784C119.44 34.9773 120.574 33.9915 121.909 33.321C123.25 32.6449 124.688 32.3068 126.222 32.3068C127.818 32.3068 129.202 32.6676 130.372 33.3892C131.548 34.1108 132.401 35.1591 132.929 36.5341C133.457 37.9091 133.56 39.5795 133.236 41.5455ZM129.017 41.0511C129.193 39.9545 129.193 39.0312 129.017 38.2812C128.847 37.5312 128.511 36.9659 128.011 36.5852C127.511 36.1989 126.861 36.0057 126.06 36.0057C125.173 36.0057 124.372 36.2244 123.656 36.6619C122.946 37.0937 122.352 37.7244 121.875 38.554C121.398 39.3778 121.065 40.375 120.878 41.5455C120.685 42.6534 120.679 43.5767 120.861 44.3153C121.048 45.054 121.398 45.6108 121.909 45.9858C122.42 46.3551 123.071 46.5398 123.861 46.5398C124.741 46.5398 125.534 46.3267 126.239 45.9006C126.943 45.4744 127.531 44.8523 128.003 44.0341C128.48 43.2159 128.818 42.2216 129.017 41.0511ZM147.699 38.2472C147.665 37.8892 147.585 37.5739 147.46 37.3011C147.335 37.0227 147.165 36.7869 146.949 36.5938C146.733 36.4006 146.466 36.2557 146.148 36.1591C145.83 36.0568 145.46 36.0057 145.04 36.0057C144.199 36.0057 143.42 36.2102 142.705 36.6193C141.989 37.0284 141.384 37.625 140.889 38.4091C140.395 39.1875 140.057 40.1335 139.875 41.2472C139.693 42.3665 139.688 43.321 139.858 44.1108C140.034 44.9006 140.386 45.5028 140.915 45.9176C141.443 46.3324 142.142 46.5398 143.011 46.5398C143.79 46.5398 144.477 46.4148 145.074 46.1648C145.67 45.9091 146.153 45.5483 146.523 45.0824C146.898 44.6165 147.134 44.0682 147.23 43.4375L148.006 43.5312H143.761L144.273 40.4545H151.79L151.406 42.7642C151.151 44.3267 150.599 45.6648 149.753 46.7784C148.912 47.892 147.861 48.7472 146.599 49.3438C145.344 49.9403 143.966 50.2386 142.466 50.2386C140.807 50.2386 139.406 49.8778 138.264 49.1562C137.122 48.4347 136.31 47.4062 135.827 46.071C135.344 44.7301 135.253 43.1392 135.554 41.2983C135.793 39.8665 136.216 38.5966 136.824 37.4886C137.438 36.375 138.188 35.4318 139.074 34.6591C139.966 33.8864 140.952 33.3011 142.031 32.9034C143.111 32.5057 144.233 32.3068 145.398 32.3068C146.403 32.3068 147.318 32.4517 148.142 32.7415C148.966 33.0312 149.67 33.4403 150.256 33.9688C150.841 34.4972 151.281 35.125 151.577 35.8523C151.878 36.5795 152.009 37.3778 151.969 38.2472H147.699ZM153.969 32.5455H158.683L161.154 39.8494H161.333L166.217 32.5455H170.93L162.62 44.1705L161.648 50H157.455L158.435 44.1705L153.969 32.5455Z" fill="black"/>
</svg>
